<svg version="1.1" id="Layer_1" xmlns="http://www.w3.org/2000/svg" xmlns:xlink="http://www.w3.org/1999/xlink" x="0px" y="0px"
	 width="100%" viewBox="0 0 1083 400" enable-background="new 0 0 1083 400" xml:space="preserve">
<path fill="#000000" opacity="0.000000" stroke="none" 
	d="
M1.000001,171.000000 
	C1.000000,114.352005 1.000000,57.704018 1.000001,1.049738 
	C362.000000,1.043452 723.000000,1.043452 1084.000000,1.043452 
	C1084.000000,13.416177 1084.000000,25.745449 1083.616943,38.884293 
	C1071.980347,39.465210 1060.727051,39.181194 1049.472534,39.116161 
	C1048.600464,39.111115 1047.473755,40.495354 1046.879395,41.482964 
	C1037.262939,57.460854 1027.644409,73.438622 1018.209839,89.523994 
	C1016.426086,92.565224 1015.010010,93.392876 1013.025940,90.068710 
	C1003.474792,74.066139 994.021423,58.005024 984.411438,42.038105 
	C983.631653,40.742458 981.949463,39.158058 980.658264,39.132286 
	C969.269287,38.905006 957.873962,39.000462 945.903809,39.000462 
	C952.344788,49.730488 958.416931,59.918705 964.560120,70.063896 
	C975.383911,87.938820 986.292664,105.762558 997.037415,123.684746 
	C998.138733,125.521820 998.892029,127.876633 998.915283,130.000977 
	C999.076050,144.657593 999.000000,159.316818 999.000000,173.975204 
	C999.000000,176.581177 999.000000,179.187149 999.000000,181.723267 
	C1009.961487,181.723267 1020.363464,181.723267 1031.000000,181.723267 
	C1031.000000,164.981766 1030.888428,148.514450 1031.103394,132.051437 
	C1031.141846,129.111221 1031.904541,125.813477 1033.396240,123.316040 
	C1048.476807,98.068047 1063.745972,72.932220 1079.083618,47.839188 
	C1080.247192,45.935627 1082.339478,44.599747 1084.000000,42.999985 
	C1084.000000,162.302780 1084.000000,281.605560 1084.000000,400.954163 
	C723.122986,400.954163 362.245941,400.954163 1.000000,400.954163 
	C1.000000,328.308838 1.000000,255.617050 1.468657,182.462631 
	C10.770006,182.000000 19.602936,181.964096 28.435236,182.022858 
	C30.937006,182.039490 32.362045,181.734238 33.290146,178.658432 
	C35.785625,170.388199 39.116547,162.373123 41.969162,154.205551 
	C42.763557,151.931046 43.778355,150.905807 46.414001,150.930313 
	C61.743576,151.072800 77.075798,151.072388 92.405457,150.934586 
	C95.228859,150.909210 96.283539,151.947815 97.072113,154.528442 
	C99.555473,162.655289 102.248817,170.722748 105.104553,178.726257 
	C105.574059,180.042114 107.251373,181.829910 108.406731,181.857056 
	C118.780426,182.100754 129.162231,181.999344 139.710037,181.999344 
	C138.840683,179.134521 138.110428,176.728058 137.120514,173.465958 
	C139.027313,174.221512 140.466904,174.705460 141.831253,175.348938 
	C145.751297,177.197876 149.527237,179.409866 153.562668,180.946365 
	C168.908081,186.789185 184.858856,186.058838 200.595062,183.769974 
	C210.087143,182.389343 219.287125,179.033325 226.615891,171.998108 
	C230.284027,168.476883 234.460022,165.484711 238.213913,162.410828 
	C241.276077,168.461258 247.924026,172.942322 255.005630,177.026230 
	C267.818390,184.415253 281.750793,185.374222 296.119812,185.108109 
	C308.539215,184.878082 320.186279,182.594360 330.890564,176.072235 
	C332.240295,175.249847 334.091461,175.250336 336.304565,174.729797 
	C335.538544,177.661224 334.992340,179.751389 334.404755,181.999924 
	C344.439545,181.999924 354.271484,182.116501 364.093872,181.862808 
	C365.428314,181.828354 367.408447,180.201736 367.911011,178.868164 
	C371.131775,170.321198 373.907684,161.606339 377.143768,153.065628 
	C377.648895,151.732468 379.745483,150.150146 381.125885,150.131378 
	C396.453949,149.922943 411.786926,149.924225 427.114929,150.134964 
	C428.431488,150.153061 430.409180,151.813705 430.912689,153.150803 
	C434.131805,161.699432 436.908173,170.415085 440.145355,178.956345 
	C440.648621,180.284332 442.745270,181.832764 444.139618,181.866837 
	C454.271271,182.114441 464.411804,181.999939 474.831085,181.999939 
	C456.979279,134.224747 439.223114,86.705467 421.433868,39.097694 
	C410.462219,39.097694 399.482117,39.097694 388.245483,39.097694 
	C376.042084,69.986176 365.121552,101.412560 352.249084,132.647354 
	C350.898926,131.368393 350.541504,131.181870 350.440155,130.902451 
	C350.223236,130.304382 350.168365,129.649979 349.995331,129.033173 
	C347.858368,121.415421 344.281769,114.960709 337.790710,109.855850 
	C328.598206,102.626427 317.835419,99.900406 306.964447,96.927483 
	C295.693756,93.845261 284.387451,90.702278 273.463348,86.607712 
	C265.570129,83.649170 264.398193,73.245026 270.397247,67.062866 
	C276.374146,60.903561 284.019745,60.662109 291.761505,61.031727 
	C304.750061,61.651840 313.751465,67.599358 315.425598,81.791962 
	C325.840790,81.791962 336.264893,81.791962 346.554382,81.791962 
	C346.348358,80.650925 345.983490,79.679321 346.029083,78.727379 
	C346.908112,60.380795 332.718781,45.324482 316.896454,39.864273 
	C302.498566,34.895615 287.845459,34.706451 273.307404,37.235298 
	C260.467712,39.468727 249.129547,45.541565 241.652573,56.935696 
	C239.382401,60.395210 237.788223,64.298309 235.759644,68.240715 
	C235.014755,67.428032 234.377029,67.038284 234.205444,66.499954 
	C230.635803,55.300694 223.089600,47.509804 212.810394,42.435314 
	C201.787384,36.993637 189.930115,35.815796 177.697876,35.858276 
	C163.879333,35.906265 151.726288,39.685448 140.499542,47.766026 
	C125.790970,58.352676 121.844559,79.721451 128.388138,94.783577 
	C133.405701,106.333145 143.270126,112.392410 154.731964,115.943573 
	C168.513351,120.213402 182.543747,123.695908 196.252426,128.174103 
	C200.490936,129.558685 205.232056,132.257492 207.655685,135.787643 
	C213.879501,144.853027 208.477005,154.041595 197.994751,157.763733 
	C192.634537,159.667068 186.470474,159.952164 180.681870,159.887299 
	C160.070282,159.656281 152.725647,148.559998 151.567749,133.999954 
	C142.794327,133.999954 133.986786,134.124374 125.189888,133.874451 
	C123.764992,133.833969 121.591812,132.434540 121.104317,131.153427 
	C109.444107,100.510872 97.966972,69.798653 86.491493,39.192226 
	C86.167252,39.105556 86.007942,39.025993 85.848465,39.025673 
	C79.349579,39.012661 72.850540,38.977219 66.351852,39.010410 
	C62.029625,39.032490 56.500988,37.556198 53.712311,39.662823 
	C50.690521,41.945557 50.226887,47.610729 48.640381,51.798050 
	C40.300148,73.810715 31.980972,95.831406 23.608387,117.831764 
	C17.114044,134.896729 10.582526,151.947845 3.936651,168.953964 
	C3.575746,169.877487 2.006680,170.328857 1.000001,171.000000 
M572.484619,39.000000 
	C566.318726,39.000031 560.148438,38.877583 553.990723,39.102180 
	C552.740906,39.147766 550.829224,40.229958 550.420898,41.294071 
	C543.825439,58.481548 537.470886,75.761177 530.965759,92.983650 
	C523.949097,111.560143 516.817505,130.093201 509.765137,148.656235 
	C505.572815,159.691162 501.436462,170.747345 497.197296,181.999939 
	C507.396484,181.999939 517.229553,182.115494 527.053345,181.865082 
	C528.399292,181.830780 530.377075,180.246368 530.908752,178.917938 
	C534.123413,170.885666 537.117432,162.758514 539.924072,154.573532 
	C540.767944,152.112778 541.660828,150.902710 544.536499,150.930420 
	C559.866394,151.078217 575.199097,151.075775 590.528931,150.927231 
	C593.157349,150.901794 594.273804,151.909195 595.004944,154.167206 
	C597.623474,162.253967 600.478333,170.268036 602.910950,178.409058 
	C603.777283,181.308533 605.089050,182.165405 608.030090,182.073151 
	C615.188721,181.848572 622.359863,182.064819 629.524780,181.988602 
	C658.266907,181.682861 687.014771,181.579315 715.746887,180.857986 
	C724.980835,180.626160 733.129333,176.055588 740.149048,170.243134 
	C759.548767,154.179947 758.485107,115.076141 728.536499,103.960373 
	C742.330688,96.397217 747.469421,84.598297 745.964478,69.655533 
	C745.242981,62.491756 743.200989,55.801292 737.950134,50.424801 
	C729.651367,41.927414 718.809326,39.464417 707.810547,39.184658 
	C684.162354,38.583149 660.488281,38.995338 636.824768,39.013035 
	C635.569031,39.013977 634.313477,39.203850 632.434326,39.356373 
	C632.434326,81.038162 632.434326,122.375710 632.434326,163.713257 
	C632.067627,163.765091 631.700928,163.816925 631.334229,163.868759 
	C615.739624,122.296036 600.144958,80.723312 584.493835,39.000000 
	C580.789490,39.000000 577.132629,39.000000 572.484619,39.000000 
M961.527771,147.978714 
	C964.017639,139.708115 968.007690,131.560593 968.698303,123.142380 
	C970.351929,102.986809 969.105347,82.973648 957.027771,65.406891 
	C949.517090,54.482708 940.282837,45.846519 927.613342,40.799419 
	C913.405518,35.139511 898.991455,35.104836 884.265259,36.992809 
	C873.296326,38.399097 863.490112,42.724926 854.986267,49.599766 
	C839.394897,62.204506 831.042236,79.156601 829.234436,98.713005 
	C827.605957,116.329567 828.593872,134.005325 837.589172,150.141266 
	C838.341003,151.489883 838.701721,153.056580 839.295044,154.659668 
	C822.224060,154.659668 805.665894,154.659668 788.727661,154.659668 
	C788.727661,115.923950 788.727661,77.527824 788.727661,39.328758 
	C777.935181,39.328758 767.530090,39.328758 757.313354,39.328758 
	C757.313354,87.050461 757.313354,134.442947 757.313354,181.695618 
	C787.692505,181.695618 817.757385,181.695618 848.169495,181.695618 
	C848.169495,176.653900 848.169495,171.909866 848.169495,165.867508 
	C850.464417,167.637238 851.859497,168.811447 853.351868,169.845322 
	C857.725098,172.874908 861.821411,176.540833 866.592102,178.716187 
	C881.721619,185.614838 897.733826,186.738525 913.963562,183.950455 
	C935.617432,180.230621 951.366577,168.382431 961.527771,147.978714 
M507.006561,229.491669 
	C500.262421,236.278168 499.171997,245.123718 499.109558,253.867752 
	C498.849243,290.332367 499.000000,326.799896 499.000000,363.266357 
	C499.000000,364.716278 499.000000,366.166229 499.000000,367.765137 
	C509.843506,367.765137 520.236816,367.765137 531.054688,367.765137 
	C531.054688,352.141724 531.054688,336.747009 531.054688,321.253845 
	C538.211670,321.253845 544.940613,321.253845 552.092712,321.253845 
	C552.092712,336.896942 552.092712,352.291687 552.092712,367.730652 
	C562.914307,367.730652 573.307983,367.730652 583.636353,367.730652 
	C583.797424,367.161285 583.958435,366.857513 583.958618,366.553711 
	C583.980042,327.090332 584.471741,287.618317 583.768555,248.167664 
	C583.476929,231.802811 575.026855,224.166656 558.569275,223.135513 
	C547.290588,222.428848 535.922913,222.729843 524.612610,223.108261 
	C518.489441,223.313110 512.346130,224.461121 507.006561,229.491669 
M399.000000,281.448761 
	C397.743042,299.302856 407.604950,311.446777 427.320160,310.056702 
	C432.626801,309.682556 437.992706,309.798431 443.311462,310.074249 
	C446.660706,310.247925 449.957367,311.237396 449.984375,315.627747 
	C450.035614,323.960297 450.091217,332.294891 449.955200,340.625549 
	C449.896698,344.209503 448.314514,346.445984 444.127502,346.057526 
	C440.988037,345.766235 437.793640,345.874573 434.634918,346.031555 
	C430.644623,346.229828 428.827118,344.591217 428.963104,340.506134 
	C429.121490,335.747345 429.000061,330.979309 429.000061,326.325592 
	C418.650238,326.325592 408.915161,326.325592 399.000183,326.325592 
	C399.000183,333.801483 398.570496,340.985352 399.108765,348.095917 
	C399.784180,357.018372 404.583588,367.781525 416.345764,368.934418 
	C428.783234,370.153473 441.317932,370.603821 453.819763,370.811615 
	C457.701263,370.876099 461.698578,369.308319 465.496643,368.047394 
	C476.396637,364.428589 478.986877,355.055634 479.841949,345.313110 
	C480.596741,336.713165 480.125000,327.992188 479.958038,319.329254 
	C479.837646,313.084137 480.264832,306.614838 478.790527,300.655548 
	C476.028717,289.492157 472.087006,283.718994 459.324158,282.118195 
	C451.002075,281.074371 442.519409,281.239258 434.104462,281.042053 
	C430.593994,280.959808 428.938293,279.567993 428.975708,275.979126 
	C429.055634,268.313721 428.919983,260.645782 429.028809,252.981094 
	C429.099487,248.003403 429.413452,248.008865 441.644745,247.953735 
	C445.482147,247.936417 448.243622,248.569809 448.027039,253.272156 
	C447.883636,256.385620 447.999847,259.511017 447.999847,262.753601 
	C458.185913,262.753601 467.919891,262.753601 478.000000,262.753601 
	C478.000000,257.716797 478.275330,252.899414 477.950378,248.122894 
	C476.799500,231.206497 469.094513,224.127884 453.564636,223.121124 
	C443.607056,222.475616 433.550995,222.585434 423.581238,223.129272 
	C415.383667,223.576447 407.079041,225.290649 403.020569,233.701859 
	C400.971893,237.947723 399.412170,242.811584 399.177246,247.473892 
	C398.624298,258.445435 399.000000,269.463715 399.000000,281.448761 
M653.169556,245.000000 
	C657.416260,244.610153 659.217163,246.500931 659.045898,250.791077 
	C658.848633,255.731705 659.000000,260.686249 659.000000,265.755737 
	C669.191528,265.755737 678.920654,265.755737 689.000000,265.755737 
	C689.000000,260.057739 689.117981,254.593567 688.977966,249.136017 
	C688.549561,232.444672 679.386536,223.691956 663.387634,223.077606 
	C652.743652,222.668884 642.057373,222.668060 631.416382,223.114075 
	C624.031433,223.423615 616.820312,225.186310 611.949890,231.611359 
	C607.918091,236.930176 606.028137,243.057571 606.018921,249.691727 
	C605.976074,280.504822 605.969604,311.318054 606.044861,342.131012 
	C606.052795,345.371490 606.275696,348.719421 607.105957,351.828674 
	C609.183838,359.609222 612.750916,366.573486 621.385925,368.639526 
	C626.736694,369.919800 632.309570,370.816132 637.793701,370.875366 
	C647.702515,370.982361 657.620850,370.369171 667.532593,369.989471 
	C676.723999,369.637360 685.415344,363.856140 686.842651,355.010803 
	C688.577454,344.259369 688.929810,333.284912 689.891418,322.278625 
	C678.738037,322.278625 669.008484,322.278625 659.000000,322.278625 
	C659.000000,326.688995 658.999939,330.826630 659.000000,334.964233 
	C659.000061,349.254272 659.000061,349.254333 644.633057,349.000000 
	C638.991699,348.900177 638.003601,347.931549 638.002502,342.399506 
	C637.997009,315.084076 637.999939,287.768646 638.000061,260.453217 
	C638.000061,256.788940 637.994080,253.124664 638.003784,249.460419 
	C638.012085,246.310608 639.262634,244.661179 642.751221,244.945892 
	C645.894897,245.202469 649.075989,245.000000 653.169556,245.000000 
z"/>
<path fill="#FFFFFF" opacity="1.000000" stroke="none" 
	d="
M1.000001,171.458069 
	C2.006680,170.328857 3.575746,169.877487 3.936651,168.953964 
	C10.582526,151.947845 17.114044,134.896729 23.608387,117.831764 
	C31.980972,95.831406 40.300148,73.810715 48.640381,51.798050 
	C50.226887,47.610729 50.690521,41.945557 53.712311,39.662823 
	C56.500988,37.556198 62.029625,39.032490 66.351852,39.010410 
	C72.850540,38.977219 79.349579,39.012661 85.848465,39.025673 
	C86.007942,39.025993 86.167252,39.105556 86.491493,39.192226 
	C97.966972,69.798653 109.444107,100.510872 121.104317,131.153427 
	C121.591812,132.434540 123.764992,133.833969 125.189888,133.874451 
	C133.986786,134.124374 142.794327,133.999954 151.567749,133.999954 
	C152.725647,148.559998 160.070282,159.656281 180.681870,159.887299 
	C186.470474,159.952164 192.634537,159.667068 197.994751,157.763733 
	C208.477005,154.041595 213.879501,144.853027 207.655685,135.787643 
	C205.232056,132.257492 200.490936,129.558685 196.252426,128.174103 
	C182.543747,123.695908 168.513351,120.213402 154.731964,115.943573 
	C143.270126,112.392410 133.405701,106.333145 128.388138,94.783577 
	C121.844559,79.721451 125.790970,58.352676 140.499542,47.766026 
	C151.726288,39.685448 163.879333,35.906265 177.697876,35.858276 
	C189.930115,35.815796 201.787384,36.993637 212.810394,42.435314 
	C223.089600,47.509804 230.635803,55.300694 234.205444,66.499954 
	C234.377029,67.038284 235.014755,67.428032 235.759644,68.240715 
	C237.788223,64.298309 239.382401,60.395210 241.652573,56.935696 
	C249.129547,45.541565 260.467712,39.468727 273.307404,37.235298 
	C287.845459,34.706451 302.498566,34.895615 316.896454,39.864273 
	C332.718781,45.324482 346.908112,60.380795 346.029083,78.727379 
	C345.983490,79.679321 346.348358,80.650925 346.554382,81.791962 
	C336.264893,81.791962 325.840790,81.791962 315.425598,81.791962 
	C313.751465,67.599358 304.750061,61.651840 291.761505,61.031727 
	C284.019745,60.662109 276.374146,60.903561 270.397247,67.062866 
	C264.398193,73.245026 265.570129,83.649170 273.463348,86.607712 
	C284.387451,90.702278 295.693756,93.845261 306.964447,96.927483 
	C317.835419,99.900406 328.598206,102.626427 337.790710,109.855850 
	C344.281769,114.960709 347.858368,121.415421 349.995331,129.033173 
	C350.168365,129.649979 350.223236,130.304382 350.440155,130.902451 
	C350.541504,131.181870 350.898926,131.368393 352.249084,132.647354 
	C365.121552,101.412560 376.042084,69.986176 388.245483,39.097694 
	C399.482117,39.097694 410.462219,39.097694 421.433868,39.097694 
	C439.223114,86.705467 456.979279,134.224747 474.831085,181.999939 
	C464.411804,181.999939 454.271271,182.114441 444.139618,181.866837 
	C442.745270,181.832764 440.648621,180.284332 440.145355,178.956345 
	C436.908173,170.415085 434.131805,161.699432 430.912689,153.150803 
	C430.409180,151.813705 428.431488,150.153061 427.114929,150.134964 
	C411.786926,149.924225 396.453949,149.922943 381.125885,150.131378 
	C379.745483,150.150146 377.648895,151.732468 377.143768,153.065628 
	C373.907684,161.606339 371.131775,170.321198 367.911011,178.868164 
	C367.408447,180.201736 365.428314,181.828354 364.093872,181.862808 
	C354.271484,182.116501 344.439545,181.999924 334.404755,181.999924 
	C334.992340,179.751389 335.538544,177.661224 336.304565,174.729797 
	C334.091461,175.250336 332.240295,175.249847 330.890564,176.072235 
	C320.186279,182.594360 308.539215,184.878082 296.119812,185.108109 
	C281.750793,185.374222 267.818390,184.415253 255.005630,177.026230 
	C247.924026,172.942322 241.276077,168.461258 238.213913,162.410828 
	C234.460022,165.484711 230.284027,168.476883 226.615891,171.998108 
	C219.287125,179.033325 210.087143,182.389343 200.595062,183.769974 
	C184.858856,186.058838 168.908081,186.789185 153.562668,180.946365 
	C149.527237,179.409866 145.751297,177.197876 141.831253,175.348938 
	C140.466904,174.705460 139.027313,174.221512 137.120514,173.465958 
	C138.110428,176.728058 138.840683,179.134521 139.710037,181.999344 
	C129.162231,181.999344 118.780426,182.100754 108.406731,181.857056 
	C107.251373,181.829910 105.574059,180.042114 105.104553,178.726257 
	C102.248817,170.722748 99.555473,162.655289 97.072113,154.528442 
	C96.283539,151.947815 95.228859,150.909210 92.405457,150.934586 
	C77.075798,151.072388 61.743576,151.072800 46.414001,150.930313 
	C43.778355,150.905807 42.763557,151.931046 41.969162,154.205551 
	C39.116547,162.373123 35.785625,170.388199 33.290146,178.658432 
	C32.362045,181.734238 30.937006,182.039490 28.435236,182.022858 
	C19.602936,181.964096 10.770006,182.000000 1.468657,182.000000 
	C1.000000,178.638718 1.000000,175.277420 1.000001,171.458069 
M209.245941,100.031303 
	C215.165009,103.188393 221.186752,106.169151 226.979675,109.542824 
	C236.264923,114.950348 238.864655,124.587662 241.672211,134.175400 
	C248.464172,134.175400 255.088364,134.175400 261.972076,134.175400 
	C261.415863,142.092224 264.445496,148.637558 270.052826,153.361908 
	C280.720581,162.349838 301.746460,162.069168 312.067108,155.902298 
	C322.841461,149.464310 322.684570,136.186310 312.802734,131.495926 
	C305.487427,128.023727 297.707764,125.369118 289.917694,123.094276 
	C277.169434,119.371536 264.001221,117.154541 252.325806,110.118050 
	C243.401535,104.739609 237.592133,97.238266 236.251633,87.144867 
	C235.628128,82.450172 234.067703,81.827324 230.137970,81.932434 
	C221.839615,82.154404 213.531204,82.000000 206.721985,82.000000 
	C204.154343,76.874817 202.610077,72.232178 199.818115,68.530632 
	C193.145981,59.684750 174.288574,58.971088 164.899399,63.697048 
	C159.124969,66.603554 156.535690,71.514778 156.945801,78.135017 
	C157.306320,83.954872 161.583603,85.916595 165.854248,87.948059 
	C167.716324,88.833809 169.731873,89.442337 171.728592,89.992073 
	C183.950684,93.357063 196.187363,96.669090 209.245941,100.031303 
M402.036835,81.690353 
	C397.027435,96.342697 392.018066,110.995049 386.942322,125.841469 
	C398.727203,125.841469 410.141205,125.841469 421.831146,125.841469 
	C416.504181,110.640831 411.292603,95.653847 405.983948,80.701324 
	C404.635040,76.901955 403.516815,79.255257 402.036835,81.690353 
M54.003902,125.999016 
	C64.628151,125.999016 75.252396,125.999016 86.811256,125.999016 
	C81.195534,109.550140 75.802429,93.753326 70.131577,77.142952 
	C69.150322,78.656052 68.385452,79.468452 68.034630,80.431671 
	C62.997593,94.261078 57.983097,108.099068 53.081112,121.976646 
	C52.662785,123.160942 53.082794,124.641357 54.003902,125.999016 
z"/>
<path fill="#FFFFFF" opacity="1.000000" stroke="none" 
	d="
M1084.000000,42.599987 
	C1082.339478,44.599747 1080.247192,45.935627 1079.083618,47.839188 
	C1063.745972,72.932220 1048.476807,98.068047 1033.396240,123.316040 
	C1031.904541,125.813477 1031.141846,129.111221 1031.103394,132.051437 
	C1030.888428,148.514450 1031.000000,164.981766 1031.000000,181.723267 
	C1020.363464,181.723267 1009.961487,181.723267 999.000000,181.723267 
	C999.000000,179.187149 999.000000,176.581177 999.000000,173.975204 
	C999.000000,159.316818 999.076050,144.657593 998.915283,130.000977 
	C998.892029,127.876633 998.138733,125.521820 997.037415,123.684746 
	C986.292664,105.762558 975.383911,87.938820 964.560120,70.063896 
	C958.416931,59.918705 952.344788,49.730488 945.903809,39.000462 
	C957.873962,39.000462 969.269287,38.905006 980.658264,39.132286 
	C981.949463,39.158058 983.631653,40.742458 984.411438,42.038105 
	C994.021423,58.005024 1003.474792,74.066139 1013.025940,90.068710 
	C1015.010010,93.392876 1016.426086,92.565224 1018.209839,89.523994 
	C1027.644409,73.438622 1037.262939,57.460854 1046.879395,41.482964 
	C1047.473755,40.495354 1048.600464,39.111115 1049.472534,39.116161 
	C1060.727051,39.181194 1071.980347,39.465210 1083.616943,39.346931 
	C1084.000000,40.066669 1084.000000,41.133339 1084.000000,42.599987 
z"/>
<path fill="#FFFFFF" opacity="1.000000" stroke="none" 
	d="
M572.980164,39.000000 
	C577.132629,39.000000 580.789490,39.000000 584.493835,39.000000 
	C600.144958,80.723312 615.739624,122.296036 631.334229,163.868759 
	C631.700928,163.816925 632.067627,163.765091 632.434326,163.713257 
	C632.434326,122.375710 632.434326,81.038162 632.434326,39.356373 
	C634.313477,39.203850 635.569031,39.013977 636.824768,39.013035 
	C660.488281,38.995338 684.162354,38.583149 707.810547,39.184658 
	C718.809326,39.464417 729.651367,41.927414 737.950134,50.424801 
	C743.200989,55.801292 745.242981,62.491756 745.964478,69.655533 
	C747.469421,84.598297 742.330688,96.397217 728.536499,103.960373 
	C758.485107,115.076141 759.548767,154.179947 740.149048,170.243134 
	C733.129333,176.055588 724.980835,180.626160 715.746887,180.857986 
	C687.014771,181.579315 658.266907,181.682861 629.524780,181.988602 
	C622.359863,182.064819 615.188721,181.848572 608.030090,182.073151 
	C605.089050,182.165405 603.777283,181.308533 602.910950,178.409058 
	C600.478333,170.268036 597.623474,162.253967 595.004944,154.167206 
	C594.273804,151.909195 593.157349,150.901794 590.528931,150.927231 
	C575.199097,151.075775 559.866394,151.078217 544.536499,150.930420 
	C541.660828,150.902710 540.767944,152.112778 539.924072,154.573532 
	C537.117432,162.758514 534.123413,170.885666 530.908752,178.917938 
	C530.377075,180.246368 528.399292,181.830780 527.053345,181.865082 
	C517.229553,182.115494 507.396484,181.999939 497.197296,181.999939 
	C501.436462,170.747345 505.572815,159.691162 509.765137,148.656235 
	C516.817505,130.093201 523.949097,111.560143 530.965759,92.983650 
	C537.470886,75.761177 543.825439,58.481548 550.420898,41.294071 
	C550.829224,40.229958 552.740906,39.147766 553.990723,39.102180 
	C560.148438,38.877583 566.318726,39.000031 572.980164,39.000000 
M688.498413,119.000000 
	C680.739319,119.000000 672.980225,119.000000 665.268250,119.000000 
	C665.268250,131.956512 665.268250,144.351913 665.268250,156.001297 
	C678.737793,156.001297 691.979675,156.689697 705.110535,155.778549 
	C715.205994,155.078049 719.204163,150.237671 720.960022,139.565369 
	C722.037537,133.016708 717.144470,124.689697 710.789734,121.291679 
	C703.958740,117.638954 696.625305,119.447655 688.498413,119.000000 
M706.067688,66.018265 
	C692.503540,62.283188 678.746155,64.697472 665.290161,63.974026 
	C665.290161,75.462822 665.290161,86.194748 665.290161,96.552193 
	C669.473145,96.359520 673.374634,96.069824 677.278931,96.023918 
	C684.422729,95.939919 691.568298,96.016396 698.713074,95.995644 
	C706.760132,95.972282 712.896729,91.442513 714.706726,83.568069 
	C715.937134,78.214790 714.934448,70.713600 706.067688,66.018265 
M577.967407,104.737022 
	C574.712341,95.812225 571.457275,86.887428 568.202209,77.962631 
	C567.829895,77.886940 567.457642,77.811241 567.085327,77.735542 
	C561.378601,93.699417 555.671814,109.663284 549.831787,125.999916 
	C560.460632,125.999916 570.608215,125.999916 580.755737,125.999916 
	C581.732849,125.999916 582.709900,125.999916 584.685425,125.999916 
	C582.332642,118.801872 580.166565,112.175194 577.967407,104.737022 
z"/>
<path fill="#FFFFFF" opacity="1.000000" stroke="none" 
	d="
M961.283691,148.280090 
	C951.366577,168.382431 935.617432,180.230621 913.963562,183.950455 
	C897.733826,186.738525 881.721619,185.614838 866.592102,178.716187 
	C861.821411,176.540833 857.725098,172.874908 853.351868,169.845322 
	C851.859497,168.811447 850.464417,167.637238 848.169495,165.867508 
	C848.169495,171.909866 848.169495,176.653900 848.169495,181.695618 
	C817.757385,181.695618 787.692505,181.695618 757.313354,181.695618 
	C757.313354,134.442947 757.313354,87.050461 757.313354,39.328758 
	C767.530090,39.328758 777.935181,39.328758 788.727661,39.328758 
	C788.727661,77.527824 788.727661,115.923950 788.727661,154.659668 
	C805.665894,154.659668 822.224060,154.659668 839.295044,154.659668 
	C838.701721,153.056580 838.341003,151.489883 837.589172,150.141266 
	C828.593872,134.005325 827.605957,116.329567 829.234436,98.713005 
	C831.042236,79.156601 839.394897,62.204506 854.986267,49.599766 
	C863.490112,42.724926 873.296326,38.399097 884.265259,36.992809 
	C898.991455,35.104836 913.405518,35.139511 927.613342,40.799419 
	C940.282837,45.846519 949.517090,54.482708 957.027771,65.406891 
	C969.105347,82.973648 970.351929,102.986809 968.698303,123.142380 
	C968.007690,131.560593 964.017639,139.708115 961.283691,148.280090 
M925.554504,74.034889 
	C917.595581,65.874512 908.005005,62.407806 896.556152,62.907032 
	C882.472107,63.521164 871.193481,72.130814 865.973572,84.578751 
	C860.916992,96.636971 860.176025,108.976547 861.870667,121.873711 
	C863.977539,137.907532 873.370239,154.517471 891.957703,157.473999 
	C903.554993,159.318680 914.233887,157.317474 923.276428,149.230377 
	C932.452393,141.023895 935.747559,129.921768 936.801453,118.457916 
	C938.238464,102.825974 936.222290,87.580872 925.554504,74.034889 
z"/>
<path fill="#FFFF00" opacity="1.000000" stroke="none" 
	d="
M507.272461,229.232895 
	C512.346130,224.461121 518.489441,223.313110 524.612610,223.108261 
	C535.922913,222.729843 547.290588,222.428848 558.569275,223.135513 
	C575.026855,224.166656 583.476929,231.802811 583.768555,248.167664 
	C584.471741,287.618317 583.980042,327.090332 583.958618,366.553711 
	C583.958435,366.857513 583.797424,367.161285 583.636353,367.730652 
	C573.307983,367.730652 562.914307,367.730652 552.092712,367.730652 
	C552.092712,352.291687 552.092712,336.896942 552.092712,321.253845 
	C544.940613,321.253845 538.211670,321.253845 531.054688,321.253845 
	C531.054688,336.747009 531.054688,352.141724 531.054688,367.765137 
	C520.236816,367.765137 509.843506,367.765137 499.000000,367.765137 
	C499.000000,366.166229 499.000000,364.716278 499.000000,363.266357 
	C499.000000,326.799896 498.849243,290.332367 499.109558,253.867752 
	C499.171997,245.123718 500.262421,236.278168 507.272461,229.232895 
M552.000000,274.499878 
	C551.999939,267.008972 551.964661,259.517792 552.013916,252.027206 
	C552.040771,247.936005 550.442688,245.230453 546.083069,245.036301 
	C542.428040,244.873520 538.696960,244.610275 535.127319,245.185120 
	C533.586426,245.433273 531.207825,247.658569 531.181091,249.024277 
	C530.900940,263.334290 531.008118,277.652191 531.040405,291.967804 
	C531.046936,294.867432 533.312500,295.805908 535.490662,295.906128 
	C540.905029,296.155243 546.338623,295.988037 552.000000,295.988037 
	C552.000000,288.771851 552.000000,282.135834 552.000000,274.499878 
z"/>
<path fill="#FFFF00" opacity="1.000000" stroke="none" 
	d="
M399.000000,280.955933 
	C399.000000,269.463715 398.624298,258.445435 399.177246,247.473892 
	C399.412170,242.811584 400.971893,237.947723 403.020569,233.701859 
	C407.079041,225.290649 415.383667,223.576447 423.581238,223.129272 
	C433.550995,222.585434 443.607056,222.475616 453.564636,223.121124 
	C469.094513,224.127884 476.799500,231.206497 477.950378,248.122894 
	C478.275330,252.899414 478.000000,257.716797 478.000000,262.753601 
	C467.919891,262.753601 458.185913,262.753601 447.999847,262.753601 
	C447.999847,259.511017 447.883636,256.385620 448.027039,253.272156 
	C448.243622,248.569809 445.482147,247.936417 441.644745,247.953735 
	C429.413452,248.008865 429.099487,248.003403 429.028809,252.981094 
	C428.919983,260.645782 429.055634,268.313721 428.975708,275.979126 
	C428.938293,279.567993 430.593994,280.959808 434.104462,281.042053 
	C442.519409,281.239258 451.002075,281.074371 459.324158,282.118195 
	C472.087006,283.718994 476.028717,289.492157 478.790527,300.655548 
	C480.264832,306.614838 479.837646,313.084137 479.958038,319.329254 
	C480.125000,327.992188 480.596741,336.713165 479.841949,345.313110 
	C478.986877,355.055634 476.396637,364.428589 465.496643,368.047394 
	C461.698578,369.308319 457.701263,370.876099 453.819763,370.811615 
	C441.317932,370.603821 428.783234,370.153473 416.345764,368.934418 
	C404.583588,367.781525 399.784180,357.018372 399.108765,348.095917 
	C398.570496,340.985352 399.000183,333.801483 399.000183,326.325592 
	C408.915161,326.325592 418.650238,326.325592 429.000061,326.325592 
	C429.000061,330.979309 429.121490,335.747345 428.963104,340.506134 
	C428.827118,344.591217 430.644623,346.229828 434.634918,346.031555 
	C437.793640,345.874573 440.988037,345.766235 444.127502,346.057526 
	C448.314514,346.445984 449.896698,344.209503 449.955200,340.625549 
	C450.091217,332.294891 450.035614,323.960297 449.984375,315.627747 
	C449.957367,311.237396 446.660706,310.247925 443.311462,310.074249 
	C437.992706,309.798431 432.626801,309.682556 427.320160,310.056702 
	C407.604950,311.446777 397.743042,299.302856 399.000000,280.955933 
z"/>
<path fill="#FFFF00" opacity="1.000000" stroke="none" 
	d="
M652.705078,245.000000 
	C649.075989,245.000000 645.894897,245.202469 642.751221,244.945892 
	C639.262634,244.661179 638.012085,246.310608 638.003784,249.460419 
	C637.994080,253.124664 638.000061,256.788940 638.000061,260.453217 
	C637.999939,287.768646 637.997009,315.084076 638.002502,342.399506 
	C638.003601,347.931549 638.991699,348.900177 644.633057,349.000000 
	C659.000061,349.254333 659.000061,349.254272 659.000000,334.964233 
	C658.999939,330.826630 659.000000,326.688995 659.000000,322.278625 
	C669.008484,322.278625 678.738037,322.278625 689.891418,322.278625 
	C688.929810,333.284912 688.577454,344.259369 686.842651,355.010803 
	C685.415344,363.856140 676.723999,369.637360 667.532593,369.989471 
	C657.620850,370.369171 647.702515,370.982361 637.793701,370.875366 
	C632.309570,370.816132 626.736694,369.919800 621.385925,368.639526 
	C612.750916,366.573486 609.183838,359.609222 607.105957,351.828674 
	C606.275696,348.719421 606.052795,345.371490 606.044861,342.131012 
	C605.969604,311.318054 605.976074,280.504822 606.018921,249.691727 
	C606.028137,243.057571 607.918091,236.930176 611.949890,231.611359 
	C616.820312,225.186310 624.031433,223.423615 631.416382,223.114075 
	C642.057373,222.668060 652.743652,222.668884 663.387634,223.077606 
	C679.386536,223.691956 688.549561,232.444672 688.977966,249.136017 
	C689.117981,254.593567 689.000000,260.057739 689.000000,265.755737 
	C678.920654,265.755737 669.191528,265.755737 659.000000,265.755737 
	C659.000000,260.686249 658.848633,255.731705 659.045898,250.791077 
	C659.217163,246.500931 657.416260,244.610153 652.705078,245.000000 
z"/>
<path fill="#000000" opacity="0.000000" stroke="none" 
	d="
M208.832550,100.015030 
	C196.187363,96.669090 183.950684,93.357063 171.728592,89.992073 
	C169.731873,89.442337 167.716324,88.833809 165.854248,87.948059 
	C161.583603,85.916595 157.306320,83.954872 156.945801,78.135017 
	C156.535690,71.514778 159.124969,66.603554 164.899399,63.697048 
	C174.288574,58.971088 193.145981,59.684750 199.818115,68.530632 
	C202.610077,72.232178 204.154343,76.874817 206.721985,82.000000 
	C213.531204,82.000000 221.839615,82.154404 230.137970,81.932434 
	C234.067703,81.827324 235.628128,82.450172 236.251633,87.144867 
	C237.592133,97.238266 243.401535,104.739609 252.325806,110.118050 
	C264.001221,117.154541 277.169434,119.371536 289.917694,123.094276 
	C297.707764,125.369118 305.487427,128.023727 312.802734,131.495926 
	C322.684570,136.186310 322.841461,149.464310 312.067108,155.902298 
	C301.746460,162.069168 280.720581,162.349838 270.052826,153.361908 
	C264.445496,148.637558 261.415863,142.092224 261.972076,134.175400 
	C255.088364,134.175400 248.464172,134.175400 241.672211,134.175400 
	C238.864655,124.587662 236.264923,114.950348 226.979675,109.542824 
	C221.186752,106.169151 215.165009,103.188393 208.832550,100.015030 
z"/>
<path fill="#000000" opacity="0.000000" stroke="none" 
	d="
M402.263977,81.348328 
	C403.516815,79.255257 404.635040,76.901955 405.983948,80.701324 
	C411.292603,95.653847 416.504181,110.640831 421.831146,125.841469 
	C410.141205,125.841469 398.727203,125.841469 386.942322,125.841469 
	C392.018066,110.995049 397.027435,96.342697 402.263977,81.348328 
z"/>
<path fill="#000000" opacity="0.000000" stroke="none" 
	d="
M53.558624,125.991615 
	C53.082794,124.641357 52.662785,123.160942 53.081112,121.976646 
	C57.983097,108.099068 62.997593,94.261078 68.034630,80.431671 
	C68.385452,79.468452 69.150322,78.656052 70.131577,77.142952 
	C75.802429,93.753326 81.195534,109.550140 86.811256,125.999016 
	C75.252396,125.999016 64.628151,125.999016 53.558624,125.991615 
z"/>
<path fill="#000000" opacity="0.000000" stroke="none" 
	d="
M688.997803,119.000000 
	C696.625305,119.447655 703.958740,117.638954 710.789734,121.291679 
	C717.144470,124.689697 722.037537,133.016708 720.960022,139.565369 
	C719.204163,150.237671 715.205994,155.078049 705.110535,155.778549 
	C691.979675,156.689697 678.737793,156.001297 665.268250,156.001297 
	C665.268250,144.351913 665.268250,131.956512 665.268250,119.000000 
	C672.980225,119.000000 680.739319,119.000000 688.997803,119.000000 
z"/>
<path fill="#000000" opacity="0.000000" stroke="none" 
	d="
M706.445435,66.154846 
	C714.934448,70.713600 715.937134,78.214790 714.706726,83.568069 
	C712.896729,91.442513 706.760132,95.972282 698.713074,95.995644 
	C691.568298,96.016396 684.422729,95.939919 677.278931,96.023918 
	C673.374634,96.069824 669.473145,96.359520 665.290161,96.552193 
	C665.290161,86.194748 665.290161,75.462822 665.290161,63.974026 
	C678.746155,64.697472 692.503540,62.283188 706.445435,66.154846 
z"/>
<path fill="#000000" opacity="0.000000" stroke="none" 
	d="
M577.984009,105.142769 
	C580.166565,112.175194 582.332642,118.801872 584.685425,125.999916 
	C582.709900,125.999916 581.732849,125.999916 580.755737,125.999916 
	C570.608215,125.999916 560.460632,125.999916 549.831787,125.999916 
	C555.671814,109.663284 561.378601,93.699417 567.085327,77.735542 
	C567.457642,77.811241 567.829895,77.886940 568.202209,77.962631 
	C571.457275,86.887428 574.712341,95.812225 577.984009,105.142769 
z"/>
<path fill="#000000" opacity="0.000000" stroke="none" 
	d="
M925.800781,74.304840 
	C936.222290,87.580872 938.238464,102.825974 936.801453,118.457916 
	C935.747559,129.921768 932.452393,141.023895 923.276428,149.230377 
	C914.233887,157.317474 903.554993,159.318680 891.957703,157.473999 
	C873.370239,154.517471 863.977539,137.907532 861.870667,121.873711 
	C860.176025,108.976547 860.916992,96.636971 865.973572,84.578751 
	C871.193481,72.130814 882.472107,63.521164 896.556152,62.907032 
	C908.005005,62.407806 917.595581,65.874512 925.800781,74.304840 
z"/>
<path fill="#000000" opacity="0.000000" stroke="none" 
	d="
M552.000000,274.999847 
	C552.000000,282.135834 552.000000,288.771851 552.000000,295.988037 
	C546.338623,295.988037 540.905029,296.155243 535.490662,295.906128 
	C533.312500,295.805908 531.046936,294.867432 531.040405,291.967804 
	C531.008118,277.652191 530.900940,263.334290 531.181091,249.024277 
	C531.207825,247.658569 533.586426,245.433273 535.127319,245.185120 
	C538.696960,244.610275 542.428040,244.873520 546.083069,245.036301 
	C550.442688,245.230453 552.040771,247.936005 552.013916,252.027206 
	C551.964661,259.517792 551.999939,267.008972 552.000000,274.999847 
z"/>
</svg>