<svg version="1.1" id="Layer_1" xmlns="http://www.w3.org/2000/svg" xmlns:xlink="http://www.w3.org/1999/xlink" x="0px" y="0px"
	 width="100%" viewBox="0 0 1083 400" enable-background="new 0 0 1083 400" xml:space="preserve">
<path fill="#000000" opacity="0.000000" stroke="none" 
	d="
M1.000000,187.000000 
	C1.000000,125.019936 1.000000,63.039875 1.000001,1.052848 
	C362.000000,1.045885 723.000000,1.045885 1084.000000,1.045885 
	C1084.000000,18.752754 1084.000000,36.413738 1083.616943,54.884293 
	C1071.980347,55.465214 1060.727173,55.181202 1049.472656,55.116116 
	C1048.600586,55.111069 1047.473755,56.495132 1046.879395,57.482731 
	C1037.262939,73.460648 1027.644409,89.438499 1018.209839,105.523903 
	C1016.426208,108.564957 1015.010071,109.393089 1013.025940,106.068817 
	C1003.474792,90.066246 994.021362,74.005127 984.411438,58.038147 
	C983.631592,56.742493 981.949524,55.158054 980.658325,55.132282 
	C969.269348,54.905003 957.873962,55.000462 945.903870,55.000462 
	C952.344788,65.730415 958.416931,75.918610 964.560120,86.063774 
	C975.383911,103.938705 986.292542,121.762512 997.037231,139.684708 
	C998.138550,141.521759 998.892029,143.876526 998.915344,146.000854 
	C999.076050,160.657455 999.000000,175.316681 999.000000,189.975052 
	C999.000000,192.581039 999.000000,195.187027 999.000000,197.723312 
	C1009.961365,197.723312 1020.363342,197.723312 1031.000000,197.723312 
	C1031.000000,180.981903 1030.888550,164.514633 1031.103394,148.051605 
	C1031.141846,145.111404 1031.904297,141.813599 1033.396118,139.316193 
	C1048.476685,114.068169 1063.745728,88.932274 1079.083618,63.839237 
	C1080.247192,61.935669 1082.339478,60.599777 1084.000000,58.999992 
	C1084.000000,172.970245 1084.000000,286.940491 1084.000000,400.955383 
	C723.123962,400.955383 362.247955,400.955383 1.000000,400.955383 
	C1.000000,333.642212 1.000000,266.283722 1.468657,198.462631 
	C10.769687,198.000000 19.602293,197.964340 28.434280,198.022675 
	C30.934792,198.039200 32.361469,197.736969 33.289860,194.659439 
	C35.784721,186.389221 39.116535,178.374573 41.968929,170.207077 
	C42.763203,167.932770 43.775429,166.905701 46.412308,166.930237 
	C61.741600,167.072906 77.073547,167.072144 92.402931,166.934769 
	C95.223816,166.909485 96.283119,167.941299 97.072418,170.525665 
	C99.554489,178.652710 102.248787,186.719727 105.104225,194.723190 
	C105.573898,196.039642 107.249130,197.829788 108.403503,197.856918 
	C118.778336,198.100754 129.161285,197.999344 139.708237,197.999344 
	C138.840485,195.137375 138.110565,192.729980 137.122375,189.470795 
	C139.042343,190.229263 140.473373,190.707062 141.828217,191.346313 
	C145.747971,193.195831 149.570236,195.266403 153.550583,196.970306 
	C166.063370,202.326859 179.334457,201.313568 192.390945,200.859818 
	C202.765121,200.499283 212.932449,197.871674 221.499374,191.761230 
	C227.299255,187.624420 232.198639,182.225113 237.636948,177.266342 
	C241.256195,184.476349 247.927917,188.936615 255.001282,193.021973 
	C267.807404,200.418396 281.743134,201.376297 296.112549,201.108276 
	C308.531311,200.876663 320.179901,198.600632 330.882751,192.073395 
	C332.232971,191.249939 334.085144,191.249420 336.301300,190.727005 
	C335.537994,193.658463 334.993195,195.750687 334.407532,197.999924 
	C344.431213,197.999924 354.262939,198.116409 364.085205,197.863235 
	C365.422333,197.828751 367.408112,196.208740 367.910187,194.876801 
	C371.131714,186.330292 373.907593,177.615631 377.142853,169.074768 
	C377.648468,167.739899 379.738983,166.150513 381.116455,166.131744 
	C396.444244,165.922836 411.776917,165.924286 427.104675,166.134521 
	C428.424438,166.152634 430.408813,167.805435 430.911774,169.140640 
	C434.131744,177.688736 436.951904,186.386780 440.104553,194.961609 
	C440.552399,196.179672 442.073364,197.844971 443.128326,197.867508 
	C453.379761,198.086411 463.637726,197.999084 474.815552,197.999084 
	C456.832764,149.851852 439.151154,102.511055 421.441040,55.093857 
	C410.442108,55.093857 399.461975,55.093857 388.254791,55.093857 
	C376.041321,85.992012 365.113342,117.407845 351.740509,147.922287 
	C350.572144,146.784210 350.258148,145.906494 350.004150,145.011749 
	C347.844116,137.402344 344.264343,130.959930 337.775543,125.850113 
	C328.581635,118.610069 317.813568,115.916588 306.948700,112.920387 
	C295.532257,109.772095 284.117554,106.455994 273.032532,102.326248 
	C266.028595,99.716927 264.683350,89.370567 269.712952,83.767288 
	C275.593536,77.216034 283.303284,76.706894 291.279205,77.006981 
	C304.772308,77.514679 313.762634,83.711876 315.437805,97.785294 
	C325.847778,97.785294 336.264984,97.785294 346.547485,97.785294 
	C346.343262,96.636757 345.983459,95.664894 346.028717,94.712280 
	C346.898773,76.417831 332.764435,61.335732 316.882751,55.862328 
	C302.483124,50.899693 287.830414,50.698544 273.294647,53.237553 
	C260.461884,55.479095 249.110840,61.536209 241.642883,72.943802 
	C239.376434,76.405914 237.779922,80.306595 235.753723,84.245155 
	C235.009842,83.425613 234.373245,83.031067 234.200485,82.488754 
	C230.632263,71.287079 223.080948,63.496914 212.799591,58.431194 
	C201.776611,53.000069 189.921127,51.806454 177.686844,51.857677 
	C163.870468,51.915531 151.716522,55.691185 140.491684,63.772537 
	C125.800034,74.349815 121.839134,95.714783 128.391891,110.791946 
	C133.411804,122.342224 143.279892,128.393600 154.740463,131.944092 
	C168.521698,136.213516 182.551910,139.695847 196.260025,144.174835 
	C200.497787,145.559464 205.235474,148.263214 207.659088,151.794235 
	C213.881042,160.859116 208.465164,170.053406 197.988205,173.764542 
	C192.625702,175.664047 186.463440,175.954559 180.675323,175.886932 
	C160.008820,175.645432 152.733917,164.529648 151.562805,149.999954 
	C142.789246,149.999954 133.981583,150.124481 125.184586,149.874237 
	C123.761314,149.833755 121.591736,148.430374 121.103882,147.148315 
	C109.443756,116.506721 97.966316,85.795601 86.419258,55.000000 
	C79.665764,55.000000 73.007141,54.972214 66.348900,55.009926 
	C62.026775,55.034401 56.497845,53.556725 53.709816,55.663601 
	C50.688141,57.947041 50.225456,63.612492 48.638912,67.800049 
	C40.299065,89.812408 31.980070,111.832695 23.607748,133.832703 
	C17.113604,150.897369 10.582319,167.948212 3.936650,184.954071 
	C3.575772,185.877548 2.006678,186.328888 1.000000,187.000000 
M539.042297,172.570404 
	C539.996643,167.657990 543.010498,166.733307 547.765320,166.862320 
	C561.915100,167.246246 576.082581,167.069336 590.241577,166.939285 
	C592.951660,166.914398 594.239441,167.644272 595.072937,170.359940 
	C597.518433,178.327209 600.619629,186.102402 602.836487,194.126221 
	C603.758240,197.462433 605.215942,198.058441 608.226990,198.050552 
	C639.545776,197.968491 670.865479,198.108170 702.183228,197.909409 
	C708.502258,197.869308 715.028870,197.473724 721.091797,195.859711 
	C747.211060,188.906479 757.578979,168.100922 751.226624,143.774002 
	C748.162231,132.038620 740.094543,124.537636 728.266968,120.016884 
	C742.541016,112.380791 747.429688,100.457748 745.960632,85.541336 
	C745.254639,78.372154 743.153381,71.699730 737.875061,66.348106 
	C729.545654,57.902958 718.718018,55.555145 707.713074,55.174690 
	C689.243652,54.536175 670.736023,55.000000 652.244507,55.000000 
	C645.958435,55.000000 639.672363,55.000000 632.575073,55.000000 
	C632.575073,96.842583 632.575073,138.291458 632.575073,179.740341 
	C632.162781,179.787704 631.750488,179.835083 631.338196,179.882446 
	C615.743652,138.307800 600.149109,96.733162 584.495178,55.000088 
	C574.306458,55.000088 564.152832,54.923653 554.003601,55.098946 
	C552.765686,55.120331 550.839539,56.220615 550.432007,57.281689 
	C543.833252,74.461479 537.470093,91.731468 530.968872,108.949089 
	C523.956604,127.520401 516.847534,146.055161 509.797516,164.612274 
	C505.597351,175.668060 501.429596,186.736145 497.171204,197.999954 
	C507.326294,197.999954 517.155945,198.114380 526.976562,197.868500 
	C528.346252,197.834198 530.366699,196.310028 530.901428,194.994171 
	C533.794739,187.874252 536.315186,180.602829 539.042297,172.570404 
M958.573242,169.941513 
	C964.085754,160.336060 968.037598,149.961731 968.801819,139.047806 
	C970.203247,119.033569 969.087952,99.186127 957.246155,81.723907 
	C949.714050,70.617027 940.365601,61.831860 927.525452,56.740269 
	C913.311951,51.104084 898.855042,50.944008 884.162720,53.038807 
	C863.356079,56.005367 847.845642,67.533768 838.371704,85.628090 
	C825.940308,109.370598 825.197510,134.422623 834.911865,159.582809 
	C836.324707,163.242249 837.789551,166.881622 839.335327,170.796082 
	C822.249268,170.796082 805.816956,170.796082 788.999573,170.796082 
	C788.999573,132.197952 788.999573,93.801140 788.999573,55.203457 
	C778.211304,55.203457 767.808899,55.203457 757.356201,55.203457 
	C757.356201,102.898888 757.356201,150.409653 757.356201,197.652283 
	C787.779236,197.652283 817.845520,197.652283 848.272522,197.652283 
	C848.272522,192.579468 848.272522,187.852509 848.272522,182.000626 
	C850.402222,183.580444 851.725037,184.611191 853.097595,185.570786 
	C857.455688,188.617584 861.510620,192.329224 866.261475,194.540543 
	C881.348022,201.562607 897.315247,202.555313 913.597656,200.000443 
	C932.930969,196.966843 947.544983,186.818298 958.573242,169.941513 
M356.651703,238.042847 
	C343.944580,244.777832 333.841553,253.608932 331.564667,268.860229 
	C329.195435,284.730103 333.176208,299.203156 347.154755,308.982056 
	C358.952209,317.235138 372.755768,320.034485 386.500641,323.103424 
	C394.306427,324.846283 402.070984,327.144989 409.504791,330.078491 
	C417.006042,333.038574 418.610809,343.637238 410.358429,348.077667 
	C406.201843,350.314240 401.505127,352.462402 396.911591,352.815704 
	C375.050049,354.496979 354.951416,349.342865 337.228912,335.911224 
	C335.429138,334.547211 332.768127,334.319550 330.000244,333.395416 
	C330.000244,345.457794 329.888306,356.278229 330.144653,367.089935 
	C330.176025,368.413055 331.928436,370.361511 333.311646,370.882172 
	C345.600311,375.507599 358.083832,378.995972 371.345551,380.205780 
	C387.047180,381.638245 402.460144,381.374359 417.576721,376.917480 
	C429.110596,373.516937 439.267303,367.717010 446.722382,357.833954 
	C450.917023,352.273193 453.388611,346.191437 454.388214,339.284363 
	C456.178192,326.915955 454.390625,315.574799 445.605194,306.152435 
	C435.941101,295.787628 422.767731,292.496460 409.769653,289.028595 
	C399.347290,286.247894 388.907410,283.498596 378.382965,281.148956 
	C372.989319,279.944794 370.432312,276.184692 370.267426,271.667480 
	C370.107666,267.290741 372.662506,263.346313 377.191254,261.333984 
	C386.536835,257.181244 396.084351,256.439423 406.263031,257.833771 
	C419.609344,259.662079 431.337982,264.910492 442.523132,271.951477 
	C444.285431,273.060822 446.312408,273.749695 449.000000,274.996094 
	C449.000000,263.422668 448.890533,253.114441 449.067413,242.811142 
	C449.119720,239.763565 447.958771,238.855453 445.164612,237.861084 
	C426.524292,231.227463 407.309052,229.195984 387.690948,230.014633 
	C377.038788,230.459152 366.826080,232.703964 356.651703,238.042847 
M498.047333,283.728180 
	C495.682190,290.573029 493.451324,297.467896 490.925751,304.253021 
	C484.467102,321.604706 477.829773,338.889893 471.362823,356.238525 
	C468.733032,363.293335 466.359406,370.443695 463.769958,377.833893 
	C477.025269,377.833893 489.822388,377.833893 502.453369,377.833893 
	C505.828003,368.142059 509.145233,358.615082 512.442932,349.144165 
	C530.329163,349.144165 547.968811,349.144165 565.446655,349.144165 
	C568.807861,358.855652 572.107239,368.388672 575.320679,377.673340 
	C588.724854,377.673340 601.773132,377.673340 615.186951,377.673340 
	C597.170410,328.854126 579.304749,280.443756 561.485229,232.158234 
	C546.555176,232.158234 531.912354,232.158234 517.440857,232.158234 
	C516.574463,234.466293 515.777710,236.577148 514.989319,238.691132 
	C509.476990,253.472687 503.966339,268.254883 498.047333,283.728180 
M746.967224,238.458710 
	C745.601379,237.966537 744.198547,237.557693 742.875488,236.969330 
	C729.532288,231.035400 715.274597,229.715240 700.979126,229.144348 
	C695.510498,228.925980 689.966248,230.256088 684.475037,231.014648 
	C671.116638,232.859940 659.171692,238.303726 649.381104,247.333435 
	C634.242920,261.295135 627.682861,279.406189 627.087402,299.698334 
	C626.875061,306.932495 627.292725,314.237000 628.079285,321.437683 
	C629.628113,335.618073 635.016724,348.271881 644.529358,359.027863 
	C657.141846,373.288940 673.838562,379.244476 692.040283,380.843018 
	C713.387268,382.717804 733.939880,379.123077 752.694702,368.522003 
	C752.694702,356.603943 752.694702,344.862946 752.694702,331.882446 
	C750.051819,333.257812 747.930603,333.958252 746.304871,335.271912 
	C733.779480,345.393402 720.593506,353.655487 703.467102,352.011719 
	C689.004761,350.623627 677.146912,344.261322 671.605530,330.753754 
	C663.779297,311.677032 664.065613,292.347229 674.989014,274.000122 
	C680.544373,264.669281 699.401611,256.201874 709.971436,257.981567 
	C722.778870,260.138031 733.824036,265.616791 743.697327,273.968506 
	C745.977356,275.897156 749.374512,276.505310 752.885620,277.985962 
	C752.885620,264.764679 752.885620,253.127563 752.885620,241.394913 
	C751.104858,240.571182 749.353760,239.761139 746.967224,238.458710 
z"/>
<path fill="#FFFFFF" opacity="1.000000" stroke="none" 
	d="
M1.000000,187.458069 
	C2.006678,186.328888 3.575772,185.877548 3.936650,184.954071 
	C10.582319,167.948212 17.113604,150.897369 23.607748,133.832703 
	C31.980070,111.832695 40.299065,89.812408 48.638912,67.800049 
	C50.225456,63.612492 50.688141,57.947041 53.709816,55.663601 
	C56.497845,53.556725 62.026775,55.034401 66.348900,55.009926 
	C73.007141,54.972214 79.665764,55.000000 86.419258,55.000000 
	C97.966316,85.795601 109.443756,116.506721 121.103882,147.148315 
	C121.591736,148.430374 123.761314,149.833755 125.184586,149.874237 
	C133.981583,150.124481 142.789246,149.999954 151.562805,149.999954 
	C152.733917,164.529648 160.008820,175.645432 180.675323,175.886932 
	C186.463440,175.954559 192.625702,175.664047 197.988205,173.764542 
	C208.465164,170.053406 213.881042,160.859116 207.659088,151.794235 
	C205.235474,148.263214 200.497787,145.559464 196.260025,144.174835 
	C182.551910,139.695847 168.521698,136.213516 154.740463,131.944092 
	C143.279892,128.393600 133.411804,122.342224 128.391891,110.791946 
	C121.839134,95.714783 125.800034,74.349815 140.491684,63.772537 
	C151.716522,55.691185 163.870468,51.915531 177.686844,51.857677 
	C189.921127,51.806454 201.776611,53.000069 212.799591,58.431194 
	C223.080948,63.496914 230.632263,71.287079 234.200485,82.488754 
	C234.373245,83.031067 235.009842,83.425613 235.753723,84.245155 
	C237.779922,80.306595 239.376434,76.405914 241.642883,72.943802 
	C249.110840,61.536209 260.461884,55.479095 273.294647,53.237553 
	C287.830414,50.698544 302.483124,50.899693 316.882751,55.862328 
	C332.764435,61.335732 346.898773,76.417831 346.028717,94.712280 
	C345.983459,95.664894 346.343262,96.636757 346.547485,97.785294 
	C336.264984,97.785294 325.847778,97.785294 315.437805,97.785294 
	C313.762634,83.711876 304.772308,77.514679 291.279205,77.006981 
	C283.303284,76.706894 275.593536,77.216034 269.712952,83.767288 
	C264.683350,89.370567 266.028595,99.716927 273.032532,102.326248 
	C284.117554,106.455994 295.532257,109.772095 306.948700,112.920387 
	C317.813568,115.916588 328.581635,118.610069 337.775543,125.850113 
	C344.264343,130.959930 347.844116,137.402344 350.004150,145.011749 
	C350.258148,145.906494 350.572144,146.784210 351.740509,147.922287 
	C365.113342,117.407845 376.041321,85.992012 388.254791,55.093857 
	C399.461975,55.093857 410.442108,55.093857 421.441040,55.093857 
	C439.151154,102.511055 456.832764,149.851852 474.815552,197.999084 
	C463.637726,197.999084 453.379761,198.086411 443.128326,197.867508 
	C442.073364,197.844971 440.552399,196.179672 440.104553,194.961609 
	C436.951904,186.386780 434.131744,177.688736 430.911774,169.140640 
	C430.408813,167.805435 428.424438,166.152634 427.104675,166.134521 
	C411.776917,165.924286 396.444244,165.922836 381.116455,166.131744 
	C379.738983,166.150513 377.648468,167.739899 377.142853,169.074768 
	C373.907593,177.615631 371.131714,186.330292 367.910187,194.876801 
	C367.408112,196.208740 365.422333,197.828751 364.085205,197.863235 
	C354.262939,198.116409 344.431213,197.999924 334.407532,197.999924 
	C334.993195,195.750687 335.537994,193.658463 336.301300,190.727005 
	C334.085144,191.249420 332.232971,191.249939 330.882751,192.073395 
	C320.179901,198.600632 308.531311,200.876663 296.112549,201.108276 
	C281.743134,201.376297 267.807404,200.418396 255.001282,193.021973 
	C247.927917,188.936615 241.256195,184.476349 237.636948,177.266342 
	C232.198639,182.225113 227.299255,187.624420 221.499374,191.761230 
	C212.932449,197.871674 202.765121,200.499283 192.390945,200.859818 
	C179.334457,201.313568 166.063370,202.326859 153.550583,196.970306 
	C149.570236,195.266403 145.747971,193.195831 141.828217,191.346313 
	C140.473373,190.707062 139.042343,190.229263 137.122375,189.470795 
	C138.110565,192.729980 138.840485,195.137375 139.708237,197.999344 
	C129.161285,197.999344 118.778336,198.100754 108.403503,197.856918 
	C107.249130,197.829788 105.573898,196.039642 105.104225,194.723190 
	C102.248787,186.719727 99.554489,178.652710 97.072418,170.525665 
	C96.283119,167.941299 95.223816,166.909485 92.402931,166.934769 
	C77.073547,167.072144 61.741600,167.072906 46.412308,166.930237 
	C43.775429,166.905701 42.763203,167.932770 41.968929,170.207077 
	C39.116535,178.374573 35.784721,186.389221 33.289860,194.659439 
	C32.361469,197.736969 30.934792,198.039200 28.434280,198.022675 
	C19.602293,197.964340 10.769687,198.000000 1.468657,198.000000 
	C1.000000,194.638718 1.000000,191.277420 1.000000,187.458069 
M242.873672,149.998291 
	C249.163696,149.998291 255.453720,149.998291 261.993805,149.998291 
	C261.417358,158.126831 264.209381,165.130920 270.126190,169.296417 
	C283.094421,178.426178 297.546417,178.697052 311.581482,171.909592 
	C322.915649,166.428299 322.788574,152.123489 312.794403,147.472473 
	C305.449585,144.054428 297.692474,141.367798 289.903534,139.093460 
	C277.157776,135.371735 263.992310,133.151871 252.320496,126.116592 
	C243.399429,120.739342 237.590073,113.238052 236.251312,103.145195 
	C235.628922,98.453033 234.070816,97.827003 230.140228,97.932335 
	C221.843338,98.154686 213.536346,98.000000 206.719971,98.000000 
	C204.157669,92.881363 202.616348,88.238419 199.825165,84.538315 
	C193.146957,75.685501 174.327728,74.974426 164.916565,79.693787 
	C160.382736,81.967346 157.316833,85.608521 156.966217,91.108437 
	C156.469147,98.905579 158.876007,101.755569 168.537033,104.860695 
	C181.657761,109.077789 195.146698,112.134216 208.367859,116.058556 
	C219.056366,119.231148 229.115204,123.943268 235.166534,133.885361 
	C238.160049,138.803604 239.738068,144.583359 242.873672,149.998291 
M394.509918,119.993462 
	C391.962128,127.194817 389.414337,134.396164 386.778534,141.846268 
	C398.721130,141.846268 410.138672,141.846268 421.835144,141.846268 
	C416.507782,126.649384 411.265656,111.673027 405.984833,96.710320 
	C405.762726,96.081009 405.180511,95.578789 404.766083,95.017357 
	C404.009277,95.677872 402.850494,96.196136 402.558563,97.021156 
	C399.940186,104.420372 397.474274,111.873535 394.509918,119.993462 
M66.956810,100.415024 
	C62.122128,113.732246 57.287445,127.049469 52.100887,141.335953 
	C64.161591,141.335953 74.994026,141.335953 85.800301,141.335953 
	C84.344330,131.858887 71.957596,97.537048 68.879066,95.169815 
	C68.233215,96.701202 67.615715,98.165390 66.956810,100.415024 
z"/>
<path fill="#FFFFFF" opacity="1.000000" stroke="none" 
	d="
M1084.000000,58.599998 
	C1082.339478,60.599777 1080.247192,61.935669 1079.083618,63.839237 
	C1063.745728,88.932274 1048.476685,114.068169 1033.396118,139.316193 
	C1031.904297,141.813599 1031.141846,145.111404 1031.103394,148.051605 
	C1030.888550,164.514633 1031.000000,180.981903 1031.000000,197.723312 
	C1020.363342,197.723312 1009.961365,197.723312 999.000000,197.723312 
	C999.000000,195.187027 999.000000,192.581039 999.000000,189.975052 
	C999.000000,175.316681 999.076050,160.657455 998.915344,146.000854 
	C998.892029,143.876526 998.138550,141.521759 997.037231,139.684708 
	C986.292542,121.762512 975.383911,103.938705 964.560120,86.063774 
	C958.416931,75.918610 952.344788,65.730415 945.903870,55.000462 
	C957.873962,55.000462 969.269348,54.905003 980.658325,55.132282 
	C981.949524,55.158054 983.631592,56.742493 984.411438,58.038147 
	C994.021362,74.005127 1003.474792,90.066246 1013.025940,106.068817 
	C1015.010071,109.393089 1016.426208,108.564957 1018.209839,105.523903 
	C1027.644409,89.438499 1037.262939,73.460648 1046.879395,57.482731 
	C1047.473755,56.495132 1048.600586,55.111069 1049.472656,55.116116 
	C1060.727173,55.181202 1071.980347,55.465214 1083.616943,55.346931 
	C1084.000000,56.066669 1084.000000,57.133339 1084.000000,58.599998 
z"/>
<path fill="#FFFFFF" opacity="1.000000" stroke="none" 
	d="
M539.003235,172.977020 
	C536.315186,180.602829 533.794739,187.874252 530.901428,194.994171 
	C530.366699,196.310028 528.346252,197.834198 526.976562,197.868500 
	C517.155945,198.114380 507.326294,197.999954 497.171204,197.999954 
	C501.429596,186.736145 505.597351,175.668060 509.797516,164.612274 
	C516.847534,146.055161 523.956604,127.520401 530.968872,108.949089 
	C537.470093,91.731468 543.833252,74.461479 550.432007,57.281689 
	C550.839539,56.220615 552.765686,55.120331 554.003601,55.098946 
	C564.152832,54.923653 574.306458,55.000088 584.495178,55.000088 
	C600.149109,96.733162 615.743652,138.307800 631.338196,179.882446 
	C631.750488,179.835083 632.162781,179.787704 632.575073,179.740341 
	C632.575073,138.291458 632.575073,96.842583 632.575073,55.000000 
	C639.672363,55.000000 645.958435,55.000000 652.244507,55.000000 
	C670.736023,55.000000 689.243652,54.536175 707.713074,55.174690 
	C718.718018,55.555145 729.545654,57.902958 737.875061,66.348106 
	C743.153381,71.699730 745.254639,78.372154 745.960632,85.541336 
	C747.429688,100.457748 742.541016,112.380791 728.266968,120.016884 
	C740.094543,124.537636 748.162231,132.038620 751.226624,143.774002 
	C757.578979,168.100922 747.211060,188.906479 721.091797,195.859711 
	C715.028870,197.473724 708.502258,197.869308 702.183228,197.909409 
	C670.865479,198.108170 639.545776,197.968491 608.226990,198.050552 
	C605.215942,198.058441 603.758240,197.462433 602.836487,194.126221 
	C600.619629,186.102402 597.518433,178.327209 595.072937,170.359940 
	C594.239441,167.644272 592.951660,166.914398 590.241577,166.939285 
	C576.082581,167.069336 561.915100,167.246246 547.765320,166.862320 
	C543.010498,166.733307 539.996643,167.657990 539.003235,172.977020 
M712.183350,169.983902 
	C713.736389,168.830490 715.665527,167.960297 716.781799,166.477997 
	C724.380432,156.387222 721.169739,138.289261 707.496887,136.420532 
	C693.641663,134.526886 679.325867,136.002701 665.260498,136.002701 
	C665.260498,147.970703 665.260498,160.351257 665.260498,173.000000 
	C676.291992,173.000000 687.075806,173.279343 697.833252,172.867889 
	C702.384766,172.693802 706.880615,171.067139 712.183350,169.983902 
M665.000000,95.501839 
	C665.000000,101.297592 665.000000,107.093346 665.000000,112.664818 
	C668.850037,112.424698 672.253174,112.067688 675.659851,112.029022 
	C683.650513,111.938324 691.643677,112.074577 699.634155,111.978714 
	C707.425659,111.885246 714.250244,105.815399 714.952454,98.147781 
	C715.622131,90.835617 713.121094,82.658501 703.128967,81.336113 
	C690.638123,79.683037 677.880188,80.048088 665.000000,79.532394 
	C665.000000,85.221756 665.000000,89.862862 665.000000,95.501839 
M576.452637,117.965309 
	C573.798889,109.965240 571.145081,101.965179 568.491272,93.965118 
	C568.042236,93.865562 567.593140,93.766014 567.144104,93.666458 
	C561.431763,109.605545 555.719360,125.544624 549.904541,141.769638 
	C561.433228,141.769638 572.655579,141.769638 584.696716,141.769638 
	C582.020447,133.753250 579.490784,126.176224 576.452637,117.965309 
z"/>
<path fill="#FFFFFF" opacity="1.000000" stroke="none" 
	d="
M958.298950,170.201004 
	C947.544983,186.818298 932.930969,196.966843 913.597656,200.000443 
	C897.315247,202.555313 881.348022,201.562607 866.261475,194.540543 
	C861.510620,192.329224 857.455688,188.617584 853.097595,185.570786 
	C851.725037,184.611191 850.402222,183.580444 848.272522,182.000626 
	C848.272522,187.852509 848.272522,192.579468 848.272522,197.652283 
	C817.845520,197.652283 787.779236,197.652283 757.356201,197.652283 
	C757.356201,150.409653 757.356201,102.898888 757.356201,55.203457 
	C767.808899,55.203457 778.211304,55.203457 788.999573,55.203457 
	C788.999573,93.801140 788.999573,132.197952 788.999573,170.796082 
	C805.816956,170.796082 822.249268,170.796082 839.335327,170.796082 
	C837.789551,166.881622 836.324707,163.242249 834.911865,159.582809 
	C825.197510,134.422623 825.940308,109.370598 838.371704,85.628090 
	C847.845642,67.533768 863.356079,56.005367 884.162720,53.038807 
	C898.855042,50.944008 913.311951,51.104084 927.525452,56.740269 
	C940.365601,61.831860 949.714050,70.617027 957.246155,81.723907 
	C969.087952,99.186127 970.203247,119.033569 968.801819,139.047806 
	C968.037598,149.961731 964.085754,160.336060 958.298950,170.201004 
M887.156799,80.315361 
	C872.808472,85.534737 865.096313,96.550247 862.841736,110.882896 
	C861.338257,120.440201 861.064209,130.511688 862.266235,140.098999 
	C864.091736,154.658295 873.592041,169.962570 891.327454,173.259323 
	C907.293457,176.227188 924.335266,169.384750 931.155212,154.527786 
	C938.673401,138.149811 938.938416,121.444603 933.738831,104.716682 
	C930.273987,93.569786 923.239380,84.951202 911.531921,80.856964 
	C903.657654,78.103256 895.863403,78.733833 887.156799,80.315361 
z"/>
<path fill="#FFFF00" opacity="1.000000" stroke="none" 
	d="
M357.033356,237.994553 
	C366.826080,232.703964 377.038788,230.459152 387.690948,230.014633 
	C407.309052,229.195984 426.524292,231.227463 445.164612,237.861084 
	C447.958771,238.855453 449.119720,239.763565 449.067413,242.811142 
	C448.890533,253.114441 449.000000,263.422668 449.000000,274.996094 
	C446.312408,273.749695 444.285431,273.060822 442.523132,271.951477 
	C431.337982,264.910492 419.609344,259.662079 406.263031,257.833771 
	C396.084351,256.439423 386.536835,257.181244 377.191254,261.333984 
	C372.662506,263.346313 370.107666,267.290741 370.267426,271.667480 
	C370.432312,276.184692 372.989319,279.944794 378.382965,281.148956 
	C388.907410,283.498596 399.347290,286.247894 409.769653,289.028595 
	C422.767731,292.496460 435.941101,295.787628 445.605194,306.152435 
	C454.390625,315.574799 456.178192,326.915955 454.388214,339.284363 
	C453.388611,346.191437 450.917023,352.273193 446.722382,357.833954 
	C439.267303,367.717010 429.110596,373.516937 417.576721,376.917480 
	C402.460144,381.374359 387.047180,381.638245 371.345551,380.205780 
	C358.083832,378.995972 345.600311,375.507599 333.311646,370.882172 
	C331.928436,370.361511 330.176025,368.413055 330.144653,367.089935 
	C329.888306,356.278229 330.000244,345.457794 330.000244,333.395416 
	C332.768127,334.319550 335.429138,334.547211 337.228912,335.911224 
	C354.951416,349.342865 375.050049,354.496979 396.911591,352.815704 
	C401.505127,352.462402 406.201843,350.314240 410.358429,348.077667 
	C418.610809,343.637238 417.006042,333.038574 409.504791,330.078491 
	C402.070984,327.144989 394.306427,324.846283 386.500641,323.103424 
	C372.755768,320.034485 358.952209,317.235138 347.154755,308.982056 
	C333.176208,299.203156 329.195435,284.730103 331.564667,268.860229 
	C333.841553,253.608932 343.944580,244.777832 357.033356,237.994553 
z"/>
<path fill="#FFFF00" opacity="1.000000" stroke="none" 
	d="
M498.251251,283.382538 
	C503.966339,268.254883 509.476990,253.472687 514.989319,238.691132 
	C515.777710,236.577148 516.574463,234.466293 517.440857,232.158234 
	C531.912354,232.158234 546.555176,232.158234 561.485229,232.158234 
	C579.304749,280.443756 597.170410,328.854126 615.186951,377.673340 
	C601.773132,377.673340 588.724854,377.673340 575.320679,377.673340 
	C572.107239,368.388672 568.807861,358.855652 565.446655,349.144165 
	C547.968811,349.144165 530.329163,349.144165 512.442932,349.144165 
	C509.145233,358.615082 505.828003,368.142059 502.453369,377.833893 
	C489.822388,377.833893 477.025269,377.833893 463.769958,377.833893 
	C466.359406,370.443695 468.733032,363.293335 471.362823,356.238525 
	C477.829773,338.889893 484.467102,321.604706 490.925751,304.253021 
	C493.451324,297.467896 495.682190,290.573029 498.251251,283.382538 
M554.525208,317.023529 
	C549.657166,302.898682 544.789062,288.773804 539.921021,274.648956 
	C539.231445,274.681427 538.541931,274.713898 537.852417,274.746368 
	C532.537659,290.315186 527.222900,305.884003 521.814270,321.727997 
	C533.424561,321.727997 544.607300,321.727997 555.913391,321.727997 
	C555.548401,320.209717 555.250977,318.972473 554.525208,317.023529 
z"/>
<path fill="#FFFF00" opacity="1.000000" stroke="none" 
	d="
M747.284912,238.704910 
	C749.353760,239.761139 751.104858,240.571182 752.885620,241.394913 
	C752.885620,253.127563 752.885620,264.764679 752.885620,277.985962 
	C749.374512,276.505310 745.977356,275.897156 743.697327,273.968506 
	C733.824036,265.616791 722.778870,260.138031 709.971436,257.981567 
	C699.401611,256.201874 680.544373,264.669281 674.989014,274.000122 
	C664.065613,292.347229 663.779297,311.677032 671.605530,330.753754 
	C677.146912,344.261322 689.004761,350.623627 703.467102,352.011719 
	C720.593506,353.655487 733.779480,345.393402 746.304871,335.271912 
	C747.930603,333.958252 750.051819,333.257812 752.694702,331.882446 
	C752.694702,344.862946 752.694702,356.603943 752.694702,368.522003 
	C733.939880,379.123077 713.387268,382.717804 692.040283,380.843018 
	C673.838562,379.244476 657.141846,373.288940 644.529358,359.027863 
	C635.016724,348.271881 629.628113,335.618073 628.079285,321.437683 
	C627.292725,314.237000 626.875061,306.932495 627.087402,299.698334 
	C627.682861,279.406189 634.242920,261.295135 649.381104,247.333435 
	C659.171692,238.303726 671.116638,232.859940 684.475037,231.014648 
	C689.966248,230.256088 695.510498,228.925980 700.979126,229.144348 
	C715.274597,229.715240 729.532288,231.035400 742.875488,236.969330 
	C744.198547,237.557693 745.601379,237.966537 747.284912,238.704910 
z"/>
<path fill="#000000" opacity="0.000000" stroke="none" 
	d="
M242.415100,149.985809 
	C239.738068,144.583359 238.160049,138.803604 235.166534,133.885361 
	C229.115204,123.943268 219.056366,119.231148 208.367859,116.058556 
	C195.146698,112.134216 181.657761,109.077789 168.537033,104.860695 
	C158.876007,101.755569 156.469147,98.905579 156.966217,91.108437 
	C157.316833,85.608521 160.382736,81.967346 164.916565,79.693787 
	C174.327728,74.974426 193.146957,75.685501 199.825165,84.538315 
	C202.616348,88.238419 204.157669,92.881363 206.719971,98.000000 
	C213.536346,98.000000 221.843338,98.154686 230.140228,97.932335 
	C234.070816,97.827003 235.628922,98.453033 236.251312,103.145195 
	C237.590073,113.238052 243.399429,120.739342 252.320496,126.116592 
	C263.992310,133.151871 277.157776,135.371735 289.903534,139.093460 
	C297.692474,141.367798 305.449585,144.054428 312.794403,147.472473 
	C322.788574,152.123489 322.915649,166.428299 311.581482,171.909592 
	C297.546417,178.697052 283.094421,178.426178 270.126190,169.296417 
	C264.209381,165.130920 261.417358,158.126831 261.993805,149.998291 
	C255.453720,149.998291 249.163696,149.998291 242.415100,149.985809 
z"/>
<path fill="#000000" opacity="0.000000" stroke="none" 
	d="
M394.736755,119.652161 
	C397.474274,111.873535 399.940186,104.420372 402.558563,97.021156 
	C402.850494,96.196136 404.009277,95.677872 404.766083,95.017365 
	C405.180511,95.578789 405.762726,96.081009 405.984833,96.710320 
	C411.265656,111.673027 416.507782,126.649384 421.835144,141.846268 
	C410.138672,141.846268 398.721130,141.846268 386.778534,141.846268 
	C389.414337,134.396164 391.962128,127.194817 394.736755,119.652161 
z"/>
<path fill="#000000" opacity="0.000000" stroke="none" 
	d="
M66.977509,100.022301 
	C67.615715,98.165390 68.233215,96.701202 68.879066,95.169815 
	C71.957596,97.537048 84.344330,131.858887 85.800301,141.335953 
	C74.994026,141.335953 64.161591,141.335953 52.100887,141.335953 
	C57.287445,127.049469 62.122128,113.732246 66.977509,100.022301 
z"/>
<path fill="#000000" opacity="0.000000" stroke="none" 
	d="
M711.792603,170.042297 
	C706.880615,171.067139 702.384766,172.693802 697.833252,172.867889 
	C687.075806,173.279343 676.291992,173.000000 665.260498,173.000000 
	C665.260498,160.351257 665.260498,147.970703 665.260498,136.002701 
	C679.325867,136.002701 693.641663,134.526886 707.496887,136.420532 
	C721.169739,138.289261 724.380432,156.387222 716.781799,166.477997 
	C715.665527,167.960297 713.736389,168.830490 711.792603,170.042297 
z"/>
<path fill="#000000" opacity="0.000000" stroke="none" 
	d="
M665.000000,95.002899 
	C665.000000,89.862862 665.000000,85.221756 665.000000,79.532394 
	C677.880188,80.048088 690.638123,79.683037 703.128967,81.336113 
	C713.121094,82.658501 715.622131,90.835617 714.952454,98.147781 
	C714.250244,105.815399 707.425659,111.885246 699.634155,111.978714 
	C691.643677,112.074577 683.650513,111.938324 675.659851,112.029022 
	C672.253174,112.067688 668.850037,112.424698 665.000000,112.664818 
	C665.000000,107.093346 665.000000,101.297592 665.000000,95.002899 
z"/>
<path fill="#000000" opacity="0.000000" stroke="none" 
	d="
M576.706909,118.282249 
	C579.490784,126.176224 582.020447,133.753250 584.696716,141.769638 
	C572.655579,141.769638 561.433228,141.769638 549.904541,141.769638 
	C555.719360,125.544624 561.431763,109.605545 567.144104,93.666458 
	C567.593140,93.766014 568.042236,93.865562 568.491272,93.965118 
	C571.145081,101.965179 573.798889,109.965240 576.706909,118.282249 
z"/>
<path fill="#000000" opacity="0.000000" stroke="none" 
	d="
M887.553284,80.167793 
	C895.863403,78.733833 903.657654,78.103256 911.531921,80.856964 
	C923.239380,84.951202 930.273987,93.569786 933.738831,104.716682 
	C938.938416,121.444603 938.673401,138.149811 931.155212,154.527786 
	C924.335266,169.384750 907.293457,176.227188 891.327454,173.259323 
	C873.592041,169.962570 864.091736,154.658295 862.266235,140.098999 
	C861.064209,130.511688 861.338257,120.440201 862.841736,110.882896 
	C865.096313,96.550247 872.808472,85.534737 887.553284,80.167793 
z"/>
<path fill="#000000" opacity="0.000000" stroke="none" 
	d="
M554.739380,317.379395 
	C555.250977,318.972473 555.548401,320.209717 555.913391,321.727997 
	C544.607300,321.727997 533.424561,321.727997 521.814270,321.727997 
	C527.222900,305.884003 532.537659,290.315186 537.852417,274.746368 
	C538.541931,274.713898 539.231445,274.681427 539.921021,274.648956 
	C544.789062,288.773804 549.657166,302.898682 554.739380,317.379395 
z"/>
</svg>